<svg id="Layer_1" data-name="Layer 1" xmlns="http://www.w3.org/2000/svg" viewBox="0 0 1920 1080"><defs><style>.cls-1{fill:#b8ff8a;}.cls-2{fill:#9f6700;}.cls-3{fill:#2ebc0c;}.cls-4{fill:#228407;}.cls-5{fill:#fff;}</style></defs><rect class="cls-1" width="1920" height="1080"/><rect class="cls-2" width="1920" height="61.55"/><rect class="cls-2" y="1018.45" width="1920" height="61.55"/><rect class="cls-2" x="1858.45" y="15.39" width="61.55" height="1049.23" transform="translate(3778.45 1080) rotate(180)"/><rect class="cls-2" y="15.39" width="61.55" height="1049.23" transform="translate(61.55 1080) rotate(180)"/><path class="cls-3" d="M770.83,342.85a9.08,9.08,0,0,1,1.68-.39c1.62-.09,3.26-.13,4.89-.13l365.36,0a62.51,62.51,0,0,1,24.52,4.74,59.69,59.69,0,0,1,34.85,41.14,51.93,51.93,0,0,1,1.6,13.15c0,.82,0,1.64,0,2.45V719.48a57.61,57.61,0,0,1-8.45,30.24,59.06,59.06,0,0,1-37.94,27.62,56.88,56.88,0,0,1-12.82,1.51h-314q-26.92,0-53.84,0c-1.52,0-3,0-4.54-.11a6.34,6.34,0,0,1-1.33-.34,3.19,3.19,0,0,1,2.82-1.11c13.72.1,27.45-.6,36.87.15-11.53-2.14-23.65-10.63-32.8-23.5a59.16,59.16,0,0,1-10.86-31.64c-.39-6.77-.51-13.51-.52-20.27q0-146.77,0-293.55c0-10.17.88-20.26,5-29.8,7.33-16.91,19.73-28.26,37.06-34.32a26.79,26.79,0,0,1,5.28-.89c-9.63,1.13-20.32.29-31,.52-2.68.06-5.36.06-8,0C773.32,344,771.85,344.11,770.83,342.85Z"/><path class="cls-4" d="M770.83,342.85c1.16,0,2.32.1,3.48.1h39.51c.81,0,1.62.1,2.42.17.24,0,.22.13,0,.25-.09.05-.16.19-.25.2a42.3,42.3,0,0,0-10.66,3.15c-1.17.51-2.37.95-3.54,1.45a54.24,54.24,0,0,0-10.4,6.38,43.68,43.68,0,0,0-8.05,7.2,66.7,66.7,0,0,0-7,9.55c-.46.81-1,1.6-1.45,2.39a35.7,35.7,0,0,0-2.19,4.74A65.72,65.72,0,0,0,769.2,389a31,31,0,0,0-1.13,8.25,13.07,13.07,0,0,1-.51,5.19,5.8,5.8,0,0,0-.13,1.73c0,.93,0,1.87,0,2.8V714.25c0,.94,0,1.87,0,2.8a5.27,5.27,0,0,0,.13,1.74,12.33,12.33,0,0,1,.5,5.18,29.41,29.41,0,0,0,1,7.93,76.08,76.08,0,0,0,4.33,12.87,45.3,45.3,0,0,0,3.83,6.65,26.69,26.69,0,0,0,4.64,6.09,24.63,24.63,0,0,0,3.85,4.49,12.67,12.67,0,0,0,3.22,2.66c2.24,2.24,5,3.79,7.59,5.54a38.53,38.53,0,0,0,7.75,4c1.52.59,3,1.25,4.55,1.76a32.78,32.78,0,0,0,7.08,1.77c.09,0,.18.12.25.19s.1.37-.26.38c-1.16,0-2.33,0-3.49,0H774c-1.05,0-2.09.08-3.14.12a44.77,44.77,0,0,1-15.3-3.17A59.77,59.77,0,0,1,718,733.64a49.13,49.13,0,0,1-1.68-12.79c0-1.16,0-2.33,0-3.5V401.07a56.07,56.07,0,0,1,7.5-28c8.72-15.27,21.71-25,38.78-29.15A26,26,0,0,1,770.83,342.85Z"/><path class="cls-5" d="M934.27,559.2v-14c0-.93,0-1.87,0-2.8,0-.77.52-1.19,1.38-1.24l.7,0c3.38,0,6.76-.13,10.14,0a78.06,78.06,0,0,1,16.25,2.11,47.32,47.32,0,0,1,19.6,10.33,122,122,0,0,1,14.13,14.53c3.44,4.11,6.79,8.3,10.28,12.37,2.58,3,5.28,5.91,8,8.79a22.69,22.69,0,0,0,7.47,5.09,24.46,24.46,0,0,0,9.12,2.07,25.42,25.42,0,0,0,19.51-7.82,32.19,32.19,0,0,0,8.83-17.13,49.57,49.57,0,0,0,.57-14.63,35.54,35.54,0,0,0-11.12-23.1A39.61,39.61,0,0,0,1039,527a66,66,0,0,0-11.51-4,7.43,7.43,0,0,1-1.35-.35,1.42,1.42,0,0,1-.56-.8,2.75,2.75,0,0,1,0-1c.19-1.5.38-3,.58-4.51.35-2.65.72-5.3,1.07-8q.43-3.28.83-6.59c.32-2.77.61-5.56.93-8.33.23-2.09.5-4.17.76-6.25a1.35,1.35,0,0,1,1.7-1.29c2,.23,3.94.42,5.89.78a59.93,59.93,0,0,1,29.18,14.16,68.48,68.48,0,0,1,21.75,35.88,87.37,87.37,0,0,1,2.32,14.48c.23,3.14.44,6.27.45,9.42a119.23,119.23,0,0,1-1.15,15.68,82.23,82.23,0,0,1-3.72,16A67.34,67.34,0,0,1,1062.31,625a51.37,51.37,0,0,1-20.83,9.44,48.07,48.07,0,0,1-14.6.83,47,47,0,0,1-22-8.16,70.32,70.32,0,0,1-7.12-5.65,190.31,190.31,0,0,1-16.33-16.79c-2.77-3.15-5.46-6.37-8.17-9.58a98.62,98.62,0,0,0-8.86-9.42c-1.37-1.25-2.84-2.41-4.31-3.56a16.8,16.8,0,0,0-6.6-3.08,42.43,42.43,0,0,0-5.84-1,121.64,121.64,0,0,0-12.22-.61,1.07,1.07,0,0,1-1.08-1.1c0-.35,0-.7,0-1.05V559.2Z"/><path class="cls-5" d="M880.52,561.35q0-8.75,0-17.48a13.06,13.06,0,0,1,.19-2.07c0-.18.28-.37.47-.47a1.51,1.51,0,0,1,.67-.13q1.39,0,2.79,0h31.78c.93,0,1.87,0,2.8,0,.78,0,1.2.49,1.22,1.36s0,1.63,0,2.45v32.51c0,.81,0,1.63,0,2.44a1.51,1.51,0,0,1-.18.66c-.1.18-.29.41-.48.44a14.23,14.23,0,0,1-2.06.2H883.14c-.58,0-1.16,0-1.74-.09a1,1,0,0,1-.82-.95c0-.93-.05-1.86-.06-2.8Z"/></svg>